<svg width="20" height="20" viewBox="0 0 20 20" fill="none" xmlns="http://www.w3.org/2000/svg">
<g clip-path="url(#clip0_857_75)">
<path fill-rule="evenodd" clip-rule="evenodd" d="M13.28 5.9747C12.8563 5.99218 12.3546 6.00286 11.8079 5.99513C10.2235 5.97287 8.20119 5.79579 6.60845 5.13993L6.98921 4.21526C8.40177 4.79688 10.2685 4.97335 11.8219 4.99529C12.591 5.00612 13.2686 4.97903 13.7536 4.94922C13.9959 4.93429 14.1896 4.91878 14.3219 4.90704C14.3881 4.9012 14.4389 4.89629 14.4728 4.89285L14.5106 4.88897L14.5196 4.88804L14.5216 4.88778L15.143 4.81876L15.074 5.43986L15.0737 5.44215L15.0728 5.45113L15.0689 5.48896C15.0655 5.52286 15.0605 5.57366 15.0547 5.63981C15.043 5.77218 15.0275 5.96583 15.0125 6.20815C14.9827 6.69311 14.9556 7.37073 14.9665 8.13985C14.9884 9.69325 15.1649 11.56 15.7465 12.9725L14.8218 13.3533C14.166 11.7606 13.9889 9.73826 13.9666 8.15387C13.9589 7.6072 13.9696 7.10555 13.987 6.68188L5.03112 15.6378L4.32401 14.9307L13.28 5.9747Z" fill="white" stroke="white"/>
</g>
<defs>
<clipPath id="clip0_857_75">
<rect width="13" height="15" fill="white" transform="translate(9.29297 19.8997) rotate(-135)"/>
</clipPath>
</defs>
</svg>
